<svg width="28" height="26" viewBox="0 0 28 26" fill="none" xmlns="http://www.w3.org/2000/svg">
<path d="M27.5 13C27.5 19.8693 21.4914 25.5 14 25.5C6.50862 25.5 0.5 19.8693 0.5 13C0.5 6.13069 6.50862 0.5 14 0.5C21.4914 0.5 27.5 6.13069 27.5 13Z" stroke="#3D3C3C"/>
<path d="M12.5195 19L11.5215 16.2246H7.7002L6.72266 19H5L8.73926 8.96484H10.5166L14.2559 19H12.5195ZM11.0908 14.8164L10.1543 12.0957C10.0859 11.9134 9.99023 11.6263 9.86719 11.2344C9.7487 10.8424 9.66667 10.5553 9.62109 10.373C9.49805 10.9336 9.31803 11.5465 9.08105 12.2119L8.17871 14.8164H11.0908ZM17.6328 14.6729H14.9121V13.4561H17.6328V10.667H18.8633V13.4561H21.5908V14.6729H18.8633V17.4482H17.6328V14.6729Z" fill="black"/>
</svg>
