<svg width="28" height="26" viewBox="0 0 28 26" fill="none" xmlns="http://www.w3.org/2000/svg">
<path d="M27.5 13C27.5 19.8693 21.4914 25.5 14 25.5C6.50862 25.5 0.5 19.8693 0.5 13C0.5 6.13069 6.50862 0.5 14 0.5C21.4914 0.5 27.5 6.13069 27.5 13Z" stroke="#3D3C3C"/>
<path d="M14.5195 19L13.5215 16.2246H9.7002L8.72266 19H7L10.7393 8.96484H12.5166L16.2559 19H14.5195ZM13.0908 14.8164L12.1543 12.0957C12.0859 11.9134 11.9902 11.6263 11.8672 11.2344C11.7487 10.8424 11.6667 10.5553 11.6211 10.373C11.498 10.9336 11.318 11.5465 11.0811 12.2119L10.1787 14.8164H13.0908ZM16.748 15.9307V14.5635H20.2617V15.9307H16.748Z" fill="black"/>
</svg>
