<svg width="135" height="45" viewBox="0 0 135 45" fill="none" xmlns="http://www.w3.org/2000/svg">
<path d="M0 22H131C131 27.7931 127.585 30.8276 131 38H0C1.02394 32.3339 1.30733 28.9918 0 22Z" fill="#FF5433" fill-opacity="0.9"/>
<path d="M18.4062 17.4062C17.7396 17.4062 17.0625 17.4688 16.375 17.5938C15.7083 17.7188 15.0417 17.8646 14.375 18.0312C13.7083 18.1771 13.0417 18.3125 12.375 18.4375C11.7083 18.5625 11.0312 18.625 10.3438 18.625C10.1354 18.625 9.91667 18.6042 9.6875 18.5625C9.47917 18.5 9.375 18.3125 9.375 18C9.375 17.7917 9.45833 17.5833 9.625 17.375C9.8125 17.1458 10.0104 17.0208 10.2188 17L18.5938 15.7812C18.6146 15.6979 18.6458 15.5729 18.6875 15.4062C18.7292 15.2188 18.7812 15.0417 18.8438 14.875C18.9271 14.6875 19.0312 14.5312 19.1562 14.4062C19.2812 14.2604 19.4271 14.1875 19.5938 14.1875C19.8438 14.1875 20.0417 14.25 20.1875 14.375C20.3333 14.5 20.4583 14.6458 20.5625 14.8125C20.6667 14.9583 20.7604 15.0938 20.8438 15.2188C20.9271 15.3438 21.0312 15.4062 21.1562 15.4062H21.4062C21.6146 15.3854 21.9479 15.3542 22.4062 15.3125C22.8646 15.25 23.3854 15.1875 23.9688 15.125C24.5729 15.0625 25.2083 15 25.875 14.9375C26.5417 14.8542 27.1771 14.7917 27.7812 14.75C28.3854 14.6875 28.9167 14.6354 29.375 14.5938C29.8333 14.5312 30.1667 14.4792 30.375 14.4375C30.4375 14.4375 30.5833 14.4375 30.8125 14.4375C31.0625 14.4167 31.2396 14.4062 31.3438 14.4062C31.3438 14.8021 31.125 15.1354 30.6875 15.4062C30.2708 15.6562 29.7292 15.875 29.0625 16.0625C28.4167 16.2292 27.6875 16.3646 26.875 16.4688C26.0833 16.5521 25.3021 16.625 24.5312 16.6875C23.7812 16.75 23.0833 16.8021 22.4375 16.8438C21.8125 16.8854 21.3333 16.9375 21 17C20.9167 18.4792 20.9479 20.0208 21.0938 21.625C21.2604 23.2292 21.4583 24.8438 21.6875 26.4688C21.9375 28.0938 22.1667 29.7083 22.375 31.3125C22.5833 32.9167 22.6875 34.4479 22.6875 35.9062C22.7708 36.1979 22.8021 36.4271 22.7812 36.5938C22.7812 36.7604 22.7292 36.875 22.625 36.9375C22.5208 37 22.3646 37.0312 22.1562 37.0312C21.9479 37.0312 21.6979 37.0208 21.4062 37C21.1979 36.25 21.0104 35.375 20.8438 34.375C20.6979 33.3542 20.5625 32.2708 20.4375 31.125C20.3125 29.9583 20.1875 28.7604 20.0625 27.5312C19.9583 26.3021 19.8542 25.0833 19.75 23.875C19.6458 22.6667 19.5312 21.5104 19.4062 20.4062C19.2812 19.3021 19.1354 18.3021 18.9688 17.4062H18.4062ZM28.875 21.9375V21.6875C28.875 21.4792 28.9479 21.3333 29.0938 21.25C29.2604 21.1667 29.4479 21.125 29.6562 21.125C29.8229 21.125 29.9792 21.1458 30.125 21.1875C30.2708 21.2083 30.3854 21.3229 30.4688 21.5312C30.5312 21.8438 30.5938 22.2812 30.6562 22.8438C30.7188 23.3854 30.7917 23.9896 30.875 24.6562C30.9583 25.3229 31.0417 26.0312 31.125 26.7812C31.2292 27.5104 31.3229 28.2083 31.4062 28.875C31.5104 29.5208 31.6146 30.1042 31.7188 30.625C31.8229 31.1458 31.9375 31.5417 32.0625 31.8125C32 29.8125 32.0625 28.0833 32.25 26.625C32.4375 25.1458 32.7917 23.9479 33.3125 23.0312C33.8542 22.0938 34.5833 21.4479 35.5 21.0938C36.4375 20.7188 37.6042 20.6354 39 20.8438C39.6458 20.8438 39.9688 21.1875 39.9688 21.875C39.9688 22.1458 39.7917 22.3333 39.4375 22.4375C39.0833 22.5208 38.6875 22.5833 38.25 22.625C37.8125 22.6458 37.3854 22.6771 36.9688 22.7188C36.5521 22.7604 36.25 22.8646 36.0625 23.0312C35.3125 23.4479 34.7812 24.0938 34.4688 24.9688C34.1771 25.8438 33.9688 26.875 33.8438 28.0625C33.7188 29.25 33.625 30.5521 33.5625 31.9688C33.5208 33.3646 33.3854 34.8021 33.1562 36.2812C33.1562 36.4896 33.0729 36.6458 32.9062 36.75C32.7396 36.8542 32.5312 36.9062 32.2812 36.9062C32.0521 36.9062 31.8229 36.8542 31.5938 36.75C31.3854 36.6458 31.2188 36.4896 31.0938 36.2812L28.875 21.9375ZM50.4375 36.1875C50.3333 35.6458 50.2396 35 50.1562 34.25C50.0938 33.4792 50.0208 32.7083 49.9375 31.9375C49.8542 31.1458 49.75 30.4062 49.625 29.7188C49.5208 29.0312 49.3542 28.4688 49.125 28.0312C48.0625 30.1979 47.125 31.9062 46.3125 33.1562C45.5 34.3854 44.7812 35.2708 44.1562 35.8125C43.5521 36.3333 43.0417 36.5833 42.625 36.5625C42.2083 36.5417 41.8646 36.3542 41.5938 36C41.3229 35.6458 41.125 35.1979 41 34.6562C40.8958 34.0938 40.8229 33.5729 40.7812 33.0938C40.7812 32.6354 40.8854 31.9896 41.0938 31.1562C41.3021 30.3229 41.5833 29.4167 41.9375 28.4375C42.2917 27.4375 42.7083 26.4271 43.1875 25.4062C43.6875 24.3854 44.2188 23.4583 44.7812 22.625C45.3438 21.7917 45.9271 21.1042 46.5312 20.5625C47.1354 20.0208 47.7396 19.75 48.3438 19.75C49.2396 19.6042 49.8958 19.8021 50.3125 20.3438C50.75 20.8646 50.8333 21.75 50.5625 23C50.5625 24.375 50.6146 25.5521 50.7188 26.5312C50.8438 27.5104 50.9688 28.4479 51.0938 29.3438C51.2396 30.2396 51.3646 31.1771 51.4688 32.1562C51.5938 33.1354 51.6562 34.3125 51.6562 35.6875C51.6562 35.9375 51.625 36.1562 51.5625 36.3438C51.5208 36.5104 51.2708 36.5938 50.8125 36.5938C50.75 36.5938 50.6667 36.5417 50.5625 36.4375C50.4792 36.3333 50.4375 36.25 50.4375 36.1875ZM48.75 22.2188C48.5208 21.8854 48.2083 21.8542 47.8125 22.125C47.4167 22.3958 47 22.8438 46.5625 23.4688C46.125 24.0938 45.6771 24.8438 45.2188 25.7188C44.7604 26.5938 44.3333 27.4792 43.9375 28.375C43.5417 29.2708 43.1979 30.125 42.9062 30.9375C42.6146 31.7292 42.4167 32.3854 42.3125 32.9062C42.3125 33.6562 42.4271 34.0833 42.6562 34.1875C42.8854 34.2708 43.1667 34.1458 43.5 33.8125C43.8333 33.4792 44.2083 33 44.625 32.375C45.0625 31.75 45.4792 31.0833 45.875 30.375C46.2917 29.6667 46.6771 28.9792 47.0312 28.3125C47.4062 27.6458 47.6979 27.1042 47.9062 26.6875C48.0938 26.25 48.2396 25.8438 48.3438 25.4688C48.4479 25.0938 48.5312 24.7396 48.5938 24.4062C48.6771 24.0521 48.7188 23.6979 48.7188 23.3438C48.7396 22.9896 48.75 22.6146 48.75 22.2188ZM52.875 24.2188C52.875 24.1979 52.8646 24.1667 52.8438 24.125C52.8438 24.0625 52.8438 24.0208 52.8438 24C52.8438 23.6875 52.9688 23.5104 53.2188 23.4688C53.4688 23.4062 53.6979 23.375 53.9062 23.375C54.1354 23.375 54.3958 23.5729 54.6875 23.9688C54.9792 24.3438 55.3021 24.8542 55.6562 25.5C56.0312 26.125 56.4062 26.8125 56.7812 27.5625C57.1771 28.3125 57.5729 29.0521 57.9688 29.7812C58.3854 30.4896 58.8021 31.1354 59.2188 31.7188C59.6562 32.3021 60.0729 32.7292 60.4688 33C60.5938 31.1042 60.6875 29.4896 60.75 28.1562C60.8125 26.8229 60.8542 25.6979 60.875 24.7812C60.9167 23.8646 60.9375 23.1458 60.9375 22.625C60.9375 22.0833 60.9271 21.6667 60.9062 21.375C60.9062 21.0833 60.8958 20.8958 60.875 20.8125C60.875 20.7083 60.875 20.6354 60.875 20.5938C60.875 20.2188 60.9375 19.9896 61.0625 19.9062C61.2083 19.8229 61.3958 19.7812 61.625 19.7812C61.8958 19.7812 62.1771 19.8229 62.4688 19.9062C62.7604 19.9896 62.9062 20.1979 62.9062 20.5312C62.9688 21.8854 62.9688 23.2604 62.9062 24.6562C62.8646 26.0312 62.7917 27.4062 62.6875 28.7812C62.5833 30.1354 62.5 31.4688 62.4375 32.7812C62.375 34.0938 62.375 35.3646 62.4375 36.5938C62.3958 36.6354 62.3021 36.6875 62.1562 36.75C62.0104 36.7917 61.8542 36.8333 61.6875 36.875C61.5208 36.9167 61.3542 36.9479 61.1875 36.9688C61.0417 36.9896 60.9375 37 60.875 37C60.6667 36.9583 60.3438 36.6771 59.9062 36.1562C59.4688 35.6146 58.9792 34.9375 58.4375 34.125C57.8958 33.3125 57.3333 32.4062 56.75 31.4062C56.1667 30.4062 55.6042 29.4375 55.0625 28.5C54.5417 27.5625 54.0833 26.7083 53.6875 25.9375C53.2917 25.1667 53.0208 24.5938 52.875 24.2188ZM65.5312 30.25C65.4271 30.2708 65.2708 30.3021 65.0625 30.3438C64.8542 30.3854 64.6354 30.3958 64.4062 30.375C64.1771 30.3542 63.9792 30.2917 63.8125 30.1875C63.625 30.0833 63.5312 29.9062 63.5312 29.6562C63.5312 29.5104 63.5625 29.4062 63.625 29.3438C63.6875 29.2812 63.7917 29.1875 63.9375 29.0625C64.3958 28.6875 64.7812 28.2083 65.0938 27.625C65.4271 27.0208 65.7292 26.3854 66 25.7188C66.2708 25.0312 66.5521 24.3542 66.8438 23.6875C67.1562 23 67.5104 22.3854 67.9062 21.8438C68.3021 21.3021 68.7917 20.8646 69.375 20.5312C69.9583 20.1979 70.6771 20.0417 71.5312 20.0625C71.8854 20.0625 72.2812 20.1458 72.7188 20.3125C73.1562 20.4792 73.5625 20.7083 73.9375 21C74.3125 21.2708 74.625 21.6042 74.875 22C75.125 22.3958 75.25 22.8333 75.25 23.3125C75.3542 23.4792 75.25 23.7188 74.9375 24.0312C74.6458 24.3438 74.2396 24.6875 73.7188 25.0625C73.1979 25.4167 72.6042 25.7917 71.9375 26.1875C71.2917 26.5625 70.6667 26.9167 70.0625 27.25C69.4583 27.5833 68.9271 27.875 68.4688 28.125C68.0104 28.375 67.7083 28.5625 67.5625 28.6875C67.4583 28.8958 67.375 29.1354 67.3125 29.4062C67.25 29.6771 67.1979 29.9375 67.1562 30.1875C67.1354 30.4167 67.1146 30.6354 67.0938 30.8438C67.0938 31.0312 67.0938 31.1771 67.0938 31.2812C67.0938 31.6771 67.0729 32.1146 67.0312 32.5938C67.0104 33.0729 67.0312 33.5312 67.0938 33.9688C67.1771 34.3854 67.3542 34.7396 67.625 35.0312C67.8958 35.3021 68.3542 35.4375 69 35.4375C69.6875 35.4375 70.3333 35.2708 70.9375 34.9375C71.5417 34.5833 72.1042 34.1562 72.625 33.6562C73.1458 33.1562 73.6146 32.6146 74.0312 32.0312C74.4688 31.4479 74.8542 30.9062 75.1875 30.4062C75.5417 29.8854 75.8542 29.4583 76.125 29.125C76.3958 28.7917 76.625 28.625 76.8125 28.625C77.0208 28.625 77.2396 28.6667 77.4688 28.75C77.7188 28.8125 77.8438 28.9792 77.8438 29.25C77.8438 29.625 77.6875 30.0729 77.375 30.5938C77.0833 31.1146 76.6875 31.6667 76.1875 32.25C75.7083 32.8333 75.1458 33.4167 74.5 34C73.875 34.5625 73.2396 35.0729 72.5938 35.5312C71.9479 35.9688 71.3125 36.3333 70.6875 36.625C70.0625 36.8958 69.5104 37.0312 69.0312 37.0312C68.0938 37.0312 67.3854 36.8021 66.9062 36.3438C66.4271 35.8854 66.0833 35.3125 65.875 34.625C65.6875 33.9375 65.5833 33.2083 65.5625 32.4375C65.5625 31.6458 65.5521 30.9167 65.5312 30.25ZM71.2812 21.8125C70.9271 21.8125 70.5521 21.9896 70.1562 22.3438C69.7604 22.6771 69.3854 23.0938 69.0312 23.5938C68.6979 24.0729 68.4167 24.5729 68.1875 25.0938C67.9792 25.5938 67.875 26.0104 67.875 26.3438C68.1875 26.3438 68.6354 26.2292 69.2188 26C69.8229 25.75 70.4167 25.4479 71 25.0938C71.5833 24.7396 72.0938 24.3646 72.5312 23.9688C72.9688 23.5729 73.1875 23.1979 73.1875 22.8438C73.1875 22.6562 73.1146 22.5 72.9688 22.375C72.8229 22.25 72.6458 22.1458 72.4375 22.0625C72.25 21.9792 72.0521 21.9167 71.8438 21.875C71.6354 21.8333 71.4479 21.8125 71.2812 21.8125ZM80.0625 35.4062C80.2083 34.4479 80.3021 33.25 80.3438 31.8125C80.4062 30.375 80.4271 28.8438 80.4062 27.2188C80.4062 25.5938 80.375 23.9167 80.3125 22.1875C80.25 20.4583 80.1667 18.8229 80.0625 17.2812C79.9583 15.7188 79.8333 14.3229 79.6875 13.0938C79.5625 11.8646 79.4271 10.8958 79.2812 10.1875C79.4688 10.0625 79.625 9.96875 79.75 9.90625C79.8958 9.82292 80.0625 9.78125 80.25 9.78125C80.3958 9.78125 80.5208 9.8125 80.625 9.875C80.7292 9.91667 80.8125 10.0208 80.875 10.1875C81.2917 14.2708 81.5729 18.3854 81.7188 22.5312C81.8854 26.6771 82.0104 30.8021 82.0938 34.9062C82.0938 35.0938 82.0938 35.3542 82.0938 35.6875C82.0938 36 82.0833 36.1667 82.0625 36.1875C81.7708 36.3333 81.5104 36.4062 81.2812 36.4062C81.0521 36.3854 80.8438 36.3229 80.6562 36.2188C80.4688 36.0938 80.3229 35.9583 80.2188 35.8125C80.1146 35.6667 80.0625 35.5312 80.0625 35.4062ZM84.4688 35.4062C84.6146 34.4479 84.7083 33.25 84.75 31.8125C84.8125 30.375 84.8333 28.8438 84.8125 27.2188C84.8125 25.5938 84.7812 23.9167 84.7188 22.1875C84.6562 20.4583 84.5729 18.8229 84.4688 17.2812C84.3646 15.7188 84.2396 14.3229 84.0938 13.0938C83.9688 11.8646 83.8333 10.8958 83.6875 10.1875C83.875 10.0625 84.0312 9.96875 84.1562 9.90625C84.3021 9.82292 84.4688 9.78125 84.6562 9.78125C84.8021 9.78125 84.9271 9.8125 85.0312 9.875C85.1354 9.91667 85.2188 10.0208 85.2812 10.1875C85.6979 14.2708 85.9792 18.3854 86.125 22.5312C86.2917 26.6771 86.4167 30.8021 86.5 34.9062C86.5 35.0938 86.5 35.3542 86.5 35.6875C86.5 36 86.4896 36.1667 86.4688 36.1875C86.1771 36.3333 85.9167 36.4062 85.6875 36.4062C85.4583 36.3854 85.25 36.3229 85.0625 36.2188C84.875 36.0938 84.7292 35.9583 84.625 35.8125C84.5208 35.6667 84.4688 35.5312 84.4688 35.4062ZM89.125 30.25C89.0208 30.2708 88.8646 30.3021 88.6562 30.3438C88.4479 30.3854 88.2292 30.3958 88 30.375C87.7708 30.3542 87.5729 30.2917 87.4062 30.1875C87.2188 30.0833 87.125 29.9062 87.125 29.6562C87.125 29.5104 87.1562 29.4062 87.2188 29.3438C87.2812 29.2812 87.3854 29.1875 87.5312 29.0625C87.9896 28.6875 88.375 28.2083 88.6875 27.625C89.0208 27.0208 89.3229 26.3854 89.5938 25.7188C89.8646 25.0312 90.1458 24.3542 90.4375 23.6875C90.75 23 91.1042 22.3854 91.5 21.8438C91.8958 21.3021 92.3854 20.8646 92.9688 20.5312C93.5521 20.1979 94.2708 20.0417 95.125 20.0625C95.4792 20.0625 95.875 20.1458 96.3125 20.3125C96.75 20.4792 97.1562 20.7083 97.5312 21C97.9062 21.2708 98.2188 21.6042 98.4688 22C98.7188 22.3958 98.8438 22.8333 98.8438 23.3125C98.9479 23.4792 98.8438 23.7188 98.5312 24.0312C98.2396 24.3438 97.8333 24.6875 97.3125 25.0625C96.7917 25.4167 96.1979 25.7917 95.5312 26.1875C94.8854 26.5625 94.2604 26.9167 93.6562 27.25C93.0521 27.5833 92.5208 27.875 92.0625 28.125C91.6042 28.375 91.3021 28.5625 91.1562 28.6875C91.0521 28.8958 90.9688 29.1354 90.9062 29.4062C90.8438 29.6771 90.7917 29.9375 90.75 30.1875C90.7292 30.4167 90.7083 30.6354 90.6875 30.8438C90.6875 31.0312 90.6875 31.1771 90.6875 31.2812C90.6875 31.6771 90.6667 32.1146 90.625 32.5938C90.6042 33.0729 90.625 33.5312 90.6875 33.9688C90.7708 34.3854 90.9479 34.7396 91.2188 35.0312C91.4896 35.3021 91.9479 35.4375 92.5938 35.4375C93.2812 35.4375 93.9271 35.2708 94.5312 34.9375C95.1354 34.5833 95.6979 34.1562 96.2188 33.6562C96.7396 33.1562 97.2083 32.6146 97.625 32.0312C98.0625 31.4479 98.4479 30.9062 98.7812 30.4062C99.1354 29.8854 99.4479 29.4583 99.7188 29.125C99.9896 28.7917 100.219 28.625 100.406 28.625C100.615 28.625 100.833 28.6667 101.062 28.75C101.312 28.8125 101.438 28.9792 101.438 29.25C101.438 29.625 101.281 30.0729 100.969 30.5938C100.677 31.1146 100.281 31.6667 99.7812 32.25C99.3021 32.8333 98.7396 33.4167 98.0938 34C97.4688 34.5625 96.8333 35.0729 96.1875 35.5312C95.5417 35.9688 94.9062 36.3333 94.2812 36.625C93.6562 36.8958 93.1042 37.0312 92.625 37.0312C91.6875 37.0312 90.9792 36.8021 90.5 36.3438C90.0208 35.8854 89.6771 35.3125 89.4688 34.625C89.2812 33.9375 89.1771 33.2083 89.1562 32.4375C89.1562 31.6458 89.1458 30.9167 89.125 30.25ZM94.875 21.8125C94.5208 21.8125 94.1458 21.9896 93.75 22.3438C93.3542 22.6771 92.9792 23.0938 92.625 23.5938C92.2917 24.0729 92.0104 24.5729 91.7812 25.0938C91.5729 25.5938 91.4688 26.0104 91.4688 26.3438C91.7812 26.3438 92.2292 26.2292 92.8125 26C93.4167 25.75 94.0104 25.4479 94.5938 25.0938C95.1771 24.7396 95.6875 24.3646 96.125 23.9688C96.5625 23.5729 96.7812 23.1979 96.7812 22.8438C96.7812 22.6562 96.7083 22.5 96.5625 22.375C96.4167 22.25 96.2396 22.1458 96.0312 22.0625C95.8438 21.9792 95.6458 21.9167 95.4375 21.875C95.2292 21.8333 95.0417 21.8125 94.875 21.8125ZM103 21.9375V21.6875C103 21.4792 103.073 21.3333 103.219 21.25C103.385 21.1667 103.573 21.125 103.781 21.125C103.948 21.125 104.104 21.1458 104.25 21.1875C104.396 21.2083 104.51 21.3229 104.594 21.5312C104.656 21.8438 104.719 22.2812 104.781 22.8438C104.844 23.3854 104.917 23.9896 105 24.6562C105.083 25.3229 105.167 26.0312 105.25 26.7812C105.354 27.5104 105.448 28.2083 105.531 28.875C105.635 29.5208 105.74 30.1042 105.844 30.625C105.948 31.1458 106.062 31.5417 106.188 31.8125C106.125 29.8125 106.188 28.0833 106.375 26.625C106.562 25.1458 106.917 23.9479 107.438 23.0312C107.979 22.0938 108.708 21.4479 109.625 21.0938C110.562 20.7188 111.729 20.6354 113.125 20.8438C113.771 20.8438 114.094 21.1875 114.094 21.875C114.094 22.1458 113.917 22.3333 113.562 22.4375C113.208 22.5208 112.812 22.5833 112.375 22.625C111.938 22.6458 111.51 22.6771 111.094 22.7188C110.677 22.7604 110.375 22.8646 110.188 23.0312C109.438 23.4479 108.906 24.0938 108.594 24.9688C108.302 25.8438 108.094 26.875 107.969 28.0625C107.844 29.25 107.75 30.5521 107.688 31.9688C107.646 33.3646 107.51 34.8021 107.281 36.2812C107.281 36.4896 107.198 36.6458 107.031 36.75C106.865 36.8542 106.656 36.9062 106.406 36.9062C106.177 36.9062 105.948 36.8542 105.719 36.75C105.51 36.6458 105.344 36.4896 105.219 36.2812L103 21.9375Z" fill="#3D3C3C"/>
</svg>
